<svg xmlns="http://www.w3.org/2000/svg" viewBox="0 0 1024 1024">
  <rect x="42" y="42" width="940" height="940" rx="184" fill="#0A0F0D" stroke="#00E6A3" stroke-width="20"/>
  <g fill="none" stroke="#00E6A3" stroke-linecap="round" stroke-linejoin="round">
    <path d="M292 320c92-4 168 27 220 95v300c-61-48-134-72-220-72V320Z" stroke-width="34"/>
    <path d="M732 320c-92-4-168 27-220 95v300c61-48 134-72 220-72V320Z" stroke-width="34"/>
    <path d="M245 375v330c104 0 193 30 267 89 74-59 163-89 267-89V375" stroke-width="31"/>
    <path d="m286 780 226 103 226-103" stroke-width="30"/>
    <path d="m306 856 206 94 206-94" stroke-width="26"/>
  </g>
</svg>
